<svg xmlns="http://www.w3.org/2000/svg" width="53" height="53" viewBox="0 0 53 53">
  <defs>
    <style>
      .cls-1 {
        fill: #fff;
        fill-rule: evenodd;
      }
    </style>
  </defs>
  <path id="play" class="cls-1" d="M1272.07,1018.37a26.788,26.788,0,0,0-7.83-9.19,1.076,1.076,0,1,0-1.28,1.73,24.613,24.613,0,0,1,7.19,8.45,24.007,24.007,0,0,1,2.69,11.14,24.34,24.34,0,1,1-24.34-24.34,1.08,1.08,0,0,0,0-2.16A26.477,26.477,0,1,0,1272.07,1018.37Zm-30.35-.18a1.088,1.088,0,0,0-.55.94v23.67a1.08,1.08,0,0,0,2.16,0v-21.77l15.97,9.51-11.74,7.56a1.075,1.075,0,1,0,1.16,1.81l13.21-8.5a1.131,1.131,0,0,0,.5-0.93,1.1,1.1,0,0,0-.53-0.91l-19.1-11.36A1.07,1.07,0,0,0,1241.72,1018.19Z" transform="translate(-1222 -1004)"/>
</svg>
