<svg xmlns="http://www.w3.org/2000/svg" width="45" height="42" viewBox="0 0 45 42">
  <defs>
    <style>
      .cls-1 {
        fill: #12c2e9;
        fill-rule: evenodd;
      }
    </style>
  </defs>
  <path class="cls-1" d="M979.082,2313.32h-1.2v-4.01a0.746,0.746,0,0,0-.75-0.75h-2.051a0.746,0.746,0,0,0-.75.75v4.01h-2.62a2.085,2.085,0,0,0-4.149-.42l-0.045.42h-3.611a6.514,6.514,0,0,1-11.825,0h-3.6l-0.044-.42a2.085,2.085,0,0,0-4.149.42h-2.627v-4.01a0.747,0.747,0,0,0-.751-0.75h-2.05a0.746,0.746,0,0,0-.75.75v4.01h-1.2a1.42,1.42,0,1,0,0,2.84h1.2v4a0.746,0.746,0,0,0,.75.75h2.05a0.747,0.747,0,0,0,.751-0.75v-4h2.926c0.09,0.85.725,6.85,0.819,7.74a2.089,2.089,0,0,0,3.645,1.16l2.931-3.36v7.98l-7.584,3.08a2.713,2.713,0,0,0-1.66,2.1l-1.513,9.92a2.712,2.712,0,0,0,5.361.82l1.281-8.39,7.016-2.85h6.228l7.016,2.85,1.281,8.39a2.712,2.712,0,0,0,5.362-.82l-1.514-9.92a2.713,2.713,0,0,0-1.66-2.1l-7.644-3.1v-8.03l2.993,3.43a2.089,2.089,0,0,0,3.645-1.16c0.094-.88.73-6.9,0.819-7.74h2.92v4a0.747,0.747,0,0,0,.751.75h2.05a0.746,0.746,0,0,0,.75-0.75v-4h1.2A1.42,1.42,0,0,0,979.082,2313.32Zm-30.025,5.4c-0.112-1.07-.159-1.51-0.271-2.56h2.508C950.386,2317.2,949.978,2317.66,949.057,2318.72Zm17.892,0c-1.037-1.19.3,0.33-2.237-2.56h2.508C967.01,2318.14,967.061,2317.65,966.949,2318.72ZM958,2305.91a4.68,4.68,0,1,1-4.684,4.68A4.678,4.678,0,0,1,958,2305.91Z" transform="translate(-935.5 -2305.91)"/>
</svg>
