<svg xmlns="http://www.w3.org/2000/svg" width="47.09" height="42" viewBox="0 0 47.09 42">
  <defs>
    <style>
      .cls-1 {
        fill: #12c2e9;
        fill-rule: evenodd;
      }
    </style>
  </defs>
  <path id="spa_" data-name="spa " class="cls-1" d="M1356.91,2348.49h-30.66v-2.86a3.3,3.3,0,0,0,2.04.71h26.51Zm-17.39-41.98a2.979,2.979,0,0,0-1.68,5.44,6.981,6.981,0,0,1,4.14-4.14A2.969,2.969,0,0,0,1339.52,2306.51Zm-0.85,7.8a5.655,5.655,0,1,0,.32-1.89A5.676,5.676,0,0,0,1338.67,2314.31Zm-3.08,7.84c-1.33,2.95-4.23,10.48-5.03,12.38h9.89a17.028,17.028,0,0,1,.73-1.55c0.94-1.74,3.85-2.6,3.15-5.03a0.142,0.142,0,0,0-.02-0.06l2.61,2.47a1.99,1.99,0,0,0,.68.42l7.12,2.72a2.1,2.1,0,0,0,.73.14,2.054,2.054,0,0,0,.73-3.97l-6.3-2.4a2.715,2.715,0,0,1-.79-0.5s-5.54-5.26-5.55-5.26a2.2,2.2,0,0,0-.86-0.48c-0.07-.02-0.15-0.05-0.23-0.07s-0.17-.05-0.26-0.07a13.182,13.182,0,0,0-4.35-.56,2.954,2.954,0,0,0-1.38.44A3.076,3.076,0,0,0,1335.59,2322.15Zm-7.3,22.95h27.03l2.59,2.62a2.475,2.475,0,0,0,.85.58,2.7,2.7,0,0,0,.97.19h11.04a2.565,2.565,0,1,0-.04-5.13h-9.92l-6.74-6.85a2.027,2.027,0,0,0-1.77-.75c-1.62,0-24.01.02-24.01,0.02a2.034,2.034,0,0,0-2.04,2.03v5.25A2.036,2.036,0,0,0,1328.29,2345.1Zm41.35-9.39a5.9,5.9,0,1,0-5.9,5.89A5.9,5.9,0,0,0,1369.64,2335.71Z" transform="translate(-1326.25 -2306.5)"/>
</svg>
