<svg xmlns="http://www.w3.org/2000/svg" width="32" height="42" viewBox="0 0 32 42">
  <defs>
    <style>
      .cls-1 {
        fill: #12c2e9;
        fill-rule: evenodd;
      }
    </style>
  </defs>
  <path class="cls-1" d="M581.844,2315.65a1.023,1.023,0,0,0-1.549-.2c-1.865,1.67-2,1.79-2.491,2.27l-2.655-.36-0.269.72a2.947,2.947,0,0,1,.13,2.24l0.529,0.07a20.582,20.582,0,0,0-1.806,3.07,17.368,17.368,0,0,0,.461,4.96,18.489,18.489,0,0,1,3.665-7.71l1.059,0.15a1.481,1.481,0,0,0,1.228-2.54l1.5-1.35A1.024,1.024,0,0,0,581.844,2315.65Zm-7.914-1.24a1.035,1.035,0,0,0-1.315.6l-0.518,1.4a2.961,2.961,0,0,1,1.947.63l0.492-1.32A1.02,1.02,0,0,0,573.93,2314.41Zm1.464,30.19a3.85,3.85,0,0,0,2.9-3.72,3.773,3.773,0,0,0-.484-1.85,3.886,3.886,0,0,0-1.413-1.45l-2.544-6.46a18.454,18.454,0,0,1-1.17-8.85c-0.1.02,0.018,0-2.082,0.24a20.476,20.476,0,0,0,1.344,9.35l2.018,5.13-1.3-.17-1.209-3.07-0.313,2.87-3.792-.51a3.1,3.1,0,0,1-1.157,1.11l0.633,0.03a1.181,1.181,0,1,1-.083,2.36c-0.5-.03-3.756-0.19-4.186-0.21a1.177,1.177,0,0,1-1.129-1.23,1.193,1.193,0,0,1,1.353-1.12,3.188,3.188,0,0,1-1.239-1.7l-2.081-.28,1.027-3.2a1.715,1.715,0,0,0,.073-0.69l-0.351-3.51a27.967,27.967,0,0,1-3.528-.7l0.42,4.2-1.061,3.31a6.41,6.41,0,0,0-3.934,11.15l-0.955.95a0.817,0.817,0,1,0,1.14,1.17l1.178-1.17a6.544,6.544,0,0,0,2.994.73c0.964,0,16.892-2.45,16.892-2.45l2.856,2.88a0.82,0.82,0,0,0,1.159.01,0.81,0.81,0,0,0,.009-1.15Zm-15.075-3.52a3.863,3.863,0,1,1-4.059-4.03A3.872,3.872,0,0,1,560.319,2341.08Zm7.361-34.71a3.261,3.261,0,1,0,1.561,4.01A3.285,3.285,0,0,0,567.68,2306.37Zm4.353,11.52-5.11.57-3.1-3.67c0.668,0.47,1.647,1.16,3.115,2.18l3.743-.41s-5.5-2.4-8.826-3.86a2.1,2.1,0,0,0-2.7,1.37c-0.325.85-2.877,7.52-3.292,8.61a2.149,2.149,0,0,0,1.046,2.85c0.351,0.19.01,0.09,6.738,1.34l-0.8,7.38a1.783,1.783,0,0,0,3.546.38l0.982-9.01a1.776,1.776,0,0,0-1.446-1.94l-2.831-.52,0.708-1.7c-0.24-.51-2.028-4.29-2.257-4.77l3.611,4.28a1.483,1.483,0,0,0,1.3.51l5.863-.65a1.5,1.5,0,0,0,1.359-1.47A1.483,1.483,0,0,0,572.033,2317.89Z" transform="translate(-550 -2306)"/>
</svg>
