<svg xmlns="http://www.w3.org/2000/svg" width="15" height="14.28" viewBox="0 0 15 14.28">
  <defs>
    <style>
      .cls-1 {
        fill: #ed213a;
        fill-opacity: 0;
        stroke: #ed213a;
        stroke-linejoin: round;
        stroke-width: 1px;
        fill-rule: evenodd;
      }
    </style>
  </defs>
  <path id="star_copy_4" data-name="star copy 4" class="cls-1" d="M1323.99,3170.88a0.265,0.265,0,0,0-.21-0.17l-4.53-.65-2.03-4.09a0.243,0.243,0,0,0-.44,0l-2.03,4.09-4.54.65a0.266,0.266,0,0,0-.2.17,0.256,0.256,0,0,0,.07.26l3.28,3.18-0.78,4.49a0.247,0.247,0,0,0,.1.24,0.242,0.242,0,0,0,.27.02l4.05-2.12,4.05,2.12a0.266,0.266,0,0,0,.12.03,0.226,0.226,0,0,0,.15-0.05,0.247,0.247,0,0,0,.1-0.24l-0.78-4.49,3.28-3.18A0.256,0.256,0,0,0,1323.99,3170.88Z" transform="translate(-1309.5 -3165.34)"/>
</svg>
